<mxfile host="Electron" modified="2023-11-02T21:44:17.928Z" agent="Mozilla/5.0 (Windows NT 10.0; Win64; x64) AppleWebKit/537.36 (KHTML, like Gecko) draw.io/22.0.3 Chrome/114.0.5735.289 Electron/25.8.4 Safari/537.36" etag="t_1Gugl90cSudxY9lzte" version="22.0.3" type="device">
  <diagram name="Page-1" id="ckiwIKY03FOyuRGD2XbK">
    <mxGraphModel dx="858" dy="1591" grid="1" gridSize="10" guides="1" tooltips="1" connect="1" arrows="1" fold="1" page="1" pageScale="1" pageWidth="850" pageHeight="1100" math="0" shadow="0">
      <root>
        <mxCell id="0" />
        <mxCell id="1" parent="0" />
        <mxCell id="Oj2rFbiSHgmjYQKhycOe-36" value="" style="rounded=0;whiteSpace=wrap;html=1;fillColor=#eeeeee;strokeColor=#36393d;" vertex="1" parent="1">
          <mxGeometry x="20" y="40" width="266" height="1010" as="geometry" />
        </mxCell>
        <mxCell id="Oj2rFbiSHgmjYQKhycOe-35" value="" style="rounded=0;whiteSpace=wrap;html=1;fillColor=#fad7ac;strokeColor=#b46504;" vertex="1" parent="1">
          <mxGeometry x="330" y="40" width="506" height="1010" as="geometry" />
        </mxCell>
        <mxCell id="Oj2rFbiSHgmjYQKhycOe-3" value="" style="edgeStyle=orthogonalEdgeStyle;rounded=0;orthogonalLoop=1;jettySize=auto;html=1;" edge="1" parent="1" source="Oj2rFbiSHgmjYQKhycOe-1" target="Oj2rFbiSHgmjYQKhycOe-2">
          <mxGeometry relative="1" as="geometry" />
        </mxCell>
        <mxCell id="Oj2rFbiSHgmjYQKhycOe-1" value="Opens" style="rounded=1;whiteSpace=wrap;html=1;" vertex="1" parent="1">
          <mxGeometry x="585" y="120" width="120" height="60" as="geometry" />
        </mxCell>
        <mxCell id="Oj2rFbiSHgmjYQKhycOe-5" value="" style="edgeStyle=orthogonalEdgeStyle;rounded=0;orthogonalLoop=1;jettySize=auto;html=1;entryX=0.5;entryY=0;entryDx=0;entryDy=0;" edge="1" parent="1" source="Oj2rFbiSHgmjYQKhycOe-2" target="Oj2rFbiSHgmjYQKhycOe-27">
          <mxGeometry relative="1" as="geometry">
            <mxPoint x="644.9999999999998" y="410.0000000000002" as="targetPoint" />
            <Array as="points" />
          </mxGeometry>
        </mxCell>
        <mxCell id="Oj2rFbiSHgmjYQKhycOe-9" value="Yes" style="edgeLabel;html=1;align=center;verticalAlign=middle;resizable=0;points=[];" vertex="1" connectable="0" parent="Oj2rFbiSHgmjYQKhycOe-5">
          <mxGeometry x="-0.0344" y="2" relative="1" as="geometry">
            <mxPoint y="-1" as="offset" />
          </mxGeometry>
        </mxCell>
        <mxCell id="Oj2rFbiSHgmjYQKhycOe-42" style="edgeStyle=orthogonalEdgeStyle;rounded=0;orthogonalLoop=1;jettySize=auto;html=1;entryX=1;entryY=0.5;entryDx=0;entryDy=0;" edge="1" parent="1" source="Oj2rFbiSHgmjYQKhycOe-2" target="Oj2rFbiSHgmjYQKhycOe-28">
          <mxGeometry relative="1" as="geometry" />
        </mxCell>
        <mxCell id="Oj2rFbiSHgmjYQKhycOe-43" value="No" style="edgeLabel;html=1;align=center;verticalAlign=middle;resizable=0;points=[];" vertex="1" connectable="0" parent="Oj2rFbiSHgmjYQKhycOe-42">
          <mxGeometry x="0.1273" relative="1" as="geometry">
            <mxPoint as="offset" />
          </mxGeometry>
        </mxCell>
        <mxCell id="Oj2rFbiSHgmjYQKhycOe-2" value="Is user entered ?" style="rhombus;whiteSpace=wrap;html=1;" vertex="1" parent="1">
          <mxGeometry x="582.5" y="256" width="125" height="80" as="geometry" />
        </mxCell>
        <mxCell id="Oj2rFbiSHgmjYQKhycOe-25" style="edgeStyle=orthogonalEdgeStyle;rounded=0;orthogonalLoop=1;jettySize=auto;html=1;entryX=0.5;entryY=0;entryDx=0;entryDy=0;" edge="1" parent="1" target="Oj2rFbiSHgmjYQKhycOe-11">
          <mxGeometry relative="1" as="geometry">
            <mxPoint x="640.090909090909" y="470" as="sourcePoint" />
            <Array as="points">
              <mxPoint x="640" y="490" />
              <mxPoint x="640" y="490" />
            </Array>
          </mxGeometry>
        </mxCell>
        <mxCell id="Oj2rFbiSHgmjYQKhycOe-15" style="edgeStyle=orthogonalEdgeStyle;rounded=0;orthogonalLoop=1;jettySize=auto;html=1;" edge="1" parent="1" source="Oj2rFbiSHgmjYQKhycOe-11">
          <mxGeometry relative="1" as="geometry">
            <mxPoint x="525" y="680" as="targetPoint" />
          </mxGeometry>
        </mxCell>
        <mxCell id="Oj2rFbiSHgmjYQKhycOe-16" style="edgeStyle=orthogonalEdgeStyle;rounded=0;orthogonalLoop=1;jettySize=auto;html=1;" edge="1" parent="1" source="Oj2rFbiSHgmjYQKhycOe-11">
          <mxGeometry relative="1" as="geometry">
            <mxPoint x="745" y="680" as="targetPoint" />
          </mxGeometry>
        </mxCell>
        <mxCell id="Oj2rFbiSHgmjYQKhycOe-24" style="edgeStyle=orthogonalEdgeStyle;rounded=0;orthogonalLoop=1;jettySize=auto;html=1;entryX=0.5;entryY=0;entryDx=0;entryDy=0;" edge="1" parent="1" source="Oj2rFbiSHgmjYQKhycOe-11" target="Oj2rFbiSHgmjYQKhycOe-22">
          <mxGeometry relative="1" as="geometry" />
        </mxCell>
        <mxCell id="Oj2rFbiSHgmjYQKhycOe-11" value="Click button to start" style="rhombus;whiteSpace=wrap;html=1;" vertex="1" parent="1">
          <mxGeometry x="575" y="540" width="130" height="80" as="geometry" />
        </mxCell>
        <mxCell id="Oj2rFbiSHgmjYQKhycOe-19" style="edgeStyle=orthogonalEdgeStyle;rounded=0;orthogonalLoop=1;jettySize=auto;html=1;entryX=0;entryY=0.5;entryDx=0;entryDy=0;" edge="1" parent="1" source="Oj2rFbiSHgmjYQKhycOe-12" target="Oj2rFbiSHgmjYQKhycOe-14">
          <mxGeometry relative="1" as="geometry">
            <Array as="points">
              <mxPoint x="525" y="890" />
            </Array>
          </mxGeometry>
        </mxCell>
        <mxCell id="Oj2rFbiSHgmjYQKhycOe-31" style="edgeStyle=orthogonalEdgeStyle;rounded=0;orthogonalLoop=1;jettySize=auto;html=1;entryX=1;entryY=0.5;entryDx=0;entryDy=0;dashed=1;dashPattern=8 8;exitX=0;exitY=0.5;exitDx=0;exitDy=0;" edge="1" parent="1" source="Oj2rFbiSHgmjYQKhycOe-12">
          <mxGeometry relative="1" as="geometry">
            <mxPoint x="390" y="720" as="sourcePoint" />
            <mxPoint x="180" y="720" as="targetPoint" />
          </mxGeometry>
        </mxCell>
        <mxCell id="Oj2rFbiSHgmjYQKhycOe-12" value="take quiz" style="whiteSpace=wrap;html=1;aspect=fixed;" vertex="1" parent="1">
          <mxGeometry x="495" y="680" width="80" height="80" as="geometry" />
        </mxCell>
        <mxCell id="Oj2rFbiSHgmjYQKhycOe-20" style="edgeStyle=orthogonalEdgeStyle;rounded=0;orthogonalLoop=1;jettySize=auto;html=1;entryX=1;entryY=0.5;entryDx=0;entryDy=0;" edge="1" parent="1" source="Oj2rFbiSHgmjYQKhycOe-13" target="Oj2rFbiSHgmjYQKhycOe-14">
          <mxGeometry relative="1" as="geometry">
            <Array as="points">
              <mxPoint x="745" y="890" />
            </Array>
          </mxGeometry>
        </mxCell>
        <mxCell id="Oj2rFbiSHgmjYQKhycOe-13" value="take q" style="whiteSpace=wrap;html=1;aspect=fixed;" vertex="1" parent="1">
          <mxGeometry x="705" y="680" width="80" height="80" as="geometry" />
        </mxCell>
        <mxCell id="Oj2rFbiSHgmjYQKhycOe-14" value="ends" style="ellipse;whiteSpace=wrap;html=1;" vertex="1" parent="1">
          <mxGeometry x="581.25" y="850" width="117.5" height="80" as="geometry" />
        </mxCell>
        <mxCell id="Oj2rFbiSHgmjYQKhycOe-23" style="edgeStyle=orthogonalEdgeStyle;rounded=0;orthogonalLoop=1;jettySize=auto;html=1;entryX=0.5;entryY=0;entryDx=0;entryDy=0;" edge="1" parent="1" source="Oj2rFbiSHgmjYQKhycOe-22" target="Oj2rFbiSHgmjYQKhycOe-14">
          <mxGeometry relative="1" as="geometry" />
        </mxCell>
        <mxCell id="Oj2rFbiSHgmjYQKhycOe-22" value="score" style="whiteSpace=wrap;html=1;aspect=fixed;" vertex="1" parent="1">
          <mxGeometry x="600" y="680" width="80" height="80" as="geometry" />
        </mxCell>
        <mxCell id="Oj2rFbiSHgmjYQKhycOe-27" value="main quiz" style="whiteSpace=wrap;html=1;aspect=fixed;" vertex="1" parent="1">
          <mxGeometry x="605" y="400" width="80" height="80" as="geometry" />
        </mxCell>
        <mxCell id="Oj2rFbiSHgmjYQKhycOe-40" style="edgeStyle=orthogonalEdgeStyle;rounded=0;orthogonalLoop=1;jettySize=auto;html=1;entryX=0;entryY=0.5;entryDx=0;entryDy=0;" edge="1" parent="1" source="Oj2rFbiSHgmjYQKhycOe-28" target="Oj2rFbiSHgmjYQKhycOe-27">
          <mxGeometry relative="1" as="geometry">
            <Array as="points">
              <mxPoint x="465" y="440" />
            </Array>
          </mxGeometry>
        </mxCell>
        <mxCell id="Oj2rFbiSHgmjYQKhycOe-44" style="edgeStyle=orthogonalEdgeStyle;rounded=0;orthogonalLoop=1;jettySize=auto;html=1;entryX=1;entryY=0.5;entryDx=0;entryDy=0;dashed=1;dashPattern=8 8;" edge="1" parent="1" source="Oj2rFbiSHgmjYQKhycOe-28" target="Oj2rFbiSHgmjYQKhycOe-37">
          <mxGeometry relative="1" as="geometry" />
        </mxCell>
        <mxCell id="Oj2rFbiSHgmjYQKhycOe-28" value="Enter name/email" style="whiteSpace=wrap;html=1;aspect=fixed;" vertex="1" parent="1">
          <mxGeometry x="425" y="256" width="80" height="80" as="geometry" />
        </mxCell>
        <mxCell id="Oj2rFbiSHgmjYQKhycOe-30" value="get questions" style="whiteSpace=wrap;html=1;aspect=fixed;" vertex="1" parent="1">
          <mxGeometry x="100" y="680" width="80" height="80" as="geometry" />
        </mxCell>
        <mxCell id="Oj2rFbiSHgmjYQKhycOe-37" value="register/login" style="whiteSpace=wrap;html=1;aspect=fixed;" vertex="1" parent="1">
          <mxGeometry x="90" y="256" width="80" height="80" as="geometry" />
        </mxCell>
        <mxCell id="Oj2rFbiSHgmjYQKhycOe-45" value="&lt;b&gt;&lt;font style=&quot;font-size: 15px;&quot;&gt;API Calls / Server&lt;/font&gt;&lt;/b&gt;" style="text;html=1;strokeColor=none;fillColor=none;align=center;verticalAlign=middle;whiteSpace=wrap;rounded=0;" vertex="1" parent="1">
          <mxGeometry x="30" y="50" width="130" height="30" as="geometry" />
        </mxCell>
        <mxCell id="Oj2rFbiSHgmjYQKhycOe-46" value="&lt;b&gt;&lt;font style=&quot;font-size: 15px;&quot;&gt;App&lt;/font&gt;&lt;/b&gt;" style="text;html=1;strokeColor=none;fillColor=none;align=center;verticalAlign=middle;whiteSpace=wrap;rounded=0;" vertex="1" parent="1">
          <mxGeometry x="350" y="50" width="130" height="30" as="geometry" />
        </mxCell>
      </root>
    </mxGraphModel>
  </diagram>
</mxfile>
